<svg width="23" height="21" viewBox="0 0 23 21" fill="none" xmlns="http://www.w3.org/2000/svg">
<path d="M11.5144 11.6153L3.66696 20.5375C3.12456 21.1542 2.24749 21.1542 1.71086 20.5375L0.406799 19.0548C-0.1356 18.4381 -0.1356 17.441 0.406799 16.8308L5.96927 10.5066L0.406799 4.18229C-0.1356 3.5656 -0.1356 2.56842 0.406799 1.95829L1.70509 0.462512C2.24749 -0.154171 3.12456 -0.154171 3.66119 0.462512L11.5087 9.38472C12.0568 10.0014 12.0568 10.9986 11.5144 11.6153ZM22.5932 9.38472L14.7457 0.462512C14.2033 -0.154171 13.3263 -0.154171 12.7896 0.462512L11.4856 1.94517C10.9432 2.56186 10.9432 3.55904 11.4856 4.16917L17.048 10.4934L11.4856 16.8177C10.9432 17.4344 10.9432 18.4316 11.4856 19.0417L12.7896 20.5244C13.332 21.141 14.2091 21.141 14.7457 20.5244L22.5932 11.6022C23.1356 10.9986 23.1356 10.0014 22.5932 9.38472Z" fill="#9B9B9B"/>
</svg>
